<!DOCTYPE svg PUBLIC "-//W3C//DTD SVG 20010904//EN" "http://www.w3.org/TR/2001/REC-SVG-20010904/DTD/svg10.dtd">
<svg version="1.0" xmlns="http://www.w3.org/2000/svg" width="2048px" height="2048px" viewBox="0 0 20480 20480" preserveAspectRatio="xMidYMid meet"><g fill="#ffffff" stroke="none">
 <path d="M2955 19728 c-3 -7 -4 -4277 -3 -9488 l3 -9475 1261 -3 1260 -2 2520 3862 c1386 2125 3535 5419 4775 7320 l2254 3457 5 -7317 5 -7317 1250 0 1250 0 0 9485 0 9485 -1260 3 -1261 2 -2635 -4032 c-1450 -2218 -3592 -5496 -4760 -7285 -1168 -1788 -2126 -3250 -2128 -3248 -2 2 -6 3279 -10 7282 l-6 7278 -1258 3 c-1001 2 -1259 0 -1262 -10z"/>
 </g>

<g fill="#000000" stroke="none">
 <path d="M0 10240 l0 -10240 10240 0 10240 0 0 10240 0 10240 -10240 0 -10240 0 0 -10240z m5462 2194 c4 -4588 9 -7289 15 -7295 6 -6 1019 1534 2756 4193 1510 2312 3655 5594 4765 7293 l2020 3090 1251 3 1251 2 0 -9470 0 -9470 -1235 0 -1235 0 0 7324 c0 4323 -4 7327 -9 7330 -5 3 -1593 -2423 -3529 -5392 -1937 -2968 -4087 -6265 -4780 -7327 l-1259 -1930 -1252 -3 -1251 -2 0 9470 0 9470 1243 0 1244 0 5 -7286z"/>
 </g>

</svg>